<?xml version="1.0" encoding="UTF-8" standalone="no"?>
<!-- Created with Inkscape (http://www.inkscape.org/) -->

<svg
   width="79.593002mm"
   height="35.361382mm"
   viewBox="0 0 79.593002 35.361382"
   version="1.1"
   id="svg1"
   sodipodi:docname="logo.svg"
   inkscape:version="1.3.2 (1:1.3.2+202311252150+091e20ef0f)"
   xmlns:inkscape="http://www.inkscape.org/namespaces/inkscape"
   xmlns:sodipodi="http://sodipodi.sourceforge.net/DTD/sodipodi-0.dtd"
   xmlns="http://www.w3.org/2000/svg"
   xmlns:svg="http://www.w3.org/2000/svg">
  <sodipodi:namedview
     id="namedview1"
     pagecolor="#ffffff"
     bordercolor="#000000"
     borderopacity="0.25"
     inkscape:showpageshadow="2"
     inkscape:pageopacity="0.0"
     inkscape:pagecheckerboard="0"
     inkscape:deskcolor="#d1d1d1"
     inkscape:document-units="mm"
     inkscape:zoom="1.0280428"
     inkscape:cx="477.12022"
     inkscape:cy="191.62627"
     inkscape:window-width="1920"
     inkscape:window-height="1016"
     inkscape:window-x="0"
     inkscape:window-y="27"
     inkscape:window-maximized="1"
     inkscape:current-layer="layer1"
     showguides="true"
     inkscape:lockguides="false" />
  <defs
     id="defs1" />
  <g
     inkscape:groupmode="layer"
     id="layer2"
     inkscape:label="Camada 2"
     style="display:none"
     transform="translate(-1.3442656,-1.6695598)">
    <rect
       style="display:inline;fill:#1a1a1a;stroke-width:0.264583"
       id="rect5"
       width="129.38641"
       height="75.246902"
       x="48.23399"
       y="83.126129" />
  </g>
  <g
     inkscape:label="Camada 1"
     inkscape:groupmode="layer"
     id="layer1"
     style="display:inline"
     transform="translate(-1.3442656,-1.6695598)">
    <path
       d="m 6.9666616,12.971612 c -1.095081,0 -1.951302,0.41892 -2.568663,1.25677 -0.610012,0.8305 -0.915018,1.98805 -0.915018,3.47266 0,1.491946 0.305006,2.664196 0.915018,3.516746 0.617361,0.8452 1.473582,1.2678 2.568663,1.2678 1.095081,0 1.966001,-0.4226 2.61276,-1.2678 0.6467594,-0.85255 0.9701394,-2.0248 0.9701394,-3.516746 0,-1.43316 -0.32338,-2.57969 -0.9701394,-3.43959 -0.646759,-0.85989 -1.517679,-1.28984 -2.61276,-1.28984 z m 0,-1.68672 c 1.807986,0 3.2080734,0.56224 4.2002604,1.68672 0.992188,1.12448 1.488282,2.70096 1.488282,4.72943 0,2.035816 -0.496094,3.630666 -1.488282,4.784546 -0.992187,1.14653 -2.3922744,1.71979 -4.2002604,1.71979 -1.800637,0 -3.189699,-0.57326 -4.167188,-1.71979 -0.970139,-1.15388 -1.455208,-2.74873 -1.455208,-4.784546 0,-2.02847 0.485069,-3.60495 1.455208,-4.72943 0.977489,-1.12448 2.366551,-1.68672 4.167188,-1.68672 z M 24.164578,22.022558 c -1.043634,1.45521 -2.377575,2.18282 -4.001823,2.18282 -2.932465,0 -4.398697,-1.73449 -4.398697,-5.20347 v -7.452436 h 2.083593 v 7.375266 c 0,2.3445 0.915017,3.51675 2.745052,3.51675 1.095081,0 1.962327,-0.3491 2.601737,-1.04731 0.646759,-0.70555 0.970138,-1.66467 0.970138,-2.87734 v -6.967366 h 1.9954 v 12.347226 h -1.9954 z m 10.759723,-0.0772 3.84748,-10.395916 h 2.16077 l -4.63021,12.347226 h -2.80018 L 28.927078,11.549442 h 2.105643 z m 10.02109,-3.737226 c 0.27193,2.851616 1.76389,4.277426 4.47587,4.277426 1.50665,0 2.98024,-0.3785 4.42075,-1.13551 v 1.91823 c -1.44051,0.62471 -2.95819,0.93707 -4.55304,0.93707 -1.94763,0 -3.50205,-0.56592 -4.66328,-1.69775 -1.16123,-1.13917 -1.74184,-2.69727 -1.74184,-4.674296 0,-2.04317 0.52917,-3.64537 1.5875,-4.8066 1.06568,-1.16123 2.54294,-1.74184 4.43177,-1.74184 1.67569,0 2.99861,0.52549 3.96875,1.57648 0.97014,1.05098 1.45521,2.49516 1.45521,4.33255 v 1.01424 z m 7.36424,-1.59853 c -0.0221,-1.12448 -0.33442,-2.0101 -0.93707,-2.65686 -0.59531,-0.65411 -1.40376,-0.98116 -2.42535,-0.98116 -1.12447,0 -2.02846,0.31236 -2.71197,0.93707 -0.68351,0.62471 -1.07672,1.53605 -1.17961,2.73402 z m 18.146014,1.04731 c -1.660994,0 -2.803854,0.19109 -3.428564,0.57326 -0.62471,0.382176 -0.93707,1.025266 -0.93707,1.929256 0,0.7423 0.23519,1.32291 0.70556,1.74184 0.47037,0.41157 1.09508,0.61736 1.87413,0.61736 1.19063,0 2.116674,-0.39688 2.778134,-1.19063 0.66145,-0.8011 0.99218,-1.86678 0.99218,-3.197036 v -0.47405 z m -5.490114,-5.54523 c 1.30822,-0.55121 2.70463,-0.82682 4.18924,-0.82682 3.542484,0 5.313724,1.84841 5.313724,5.54523 v 7.066576 h -2.02848 v -1.84106 c -0.88929,1.43316 -2.311434,2.14974 -4.266404,2.14974 -1.26412,0 -2.26733,-0.3491 -3.00964,-1.04731 -0.73495,-0.70555 -1.10243,-1.65732 -1.10243,-2.8553 0,-2.807516 1.83738,-4.211276 5.51215,-4.211276 h 2.866324 v -0.19844 c 0,-0.94074 -0.305,-1.66099 -0.91501,-2.16076 -0.61001,-0.50712 -1.466244,-0.76068 -2.568674,-0.76068 -1.44051,0 -2.77077,0.33808 -3.9908,1.01424 z m 15.687594,11.784986 -1.77033,0.0225 c 0.77479,-4.11502 0.37796,-8.084256 -0.60263,-12.199276 l 1.52596,-0.3098 c 1.17435,4.07446 1.39328,8.336196 0.847,12.486576 z"
       id="text1"
       style="font-size:22.5778px;font-family:'Arundina Sans';-inkscape-font-specification:'Arundina Sans';fill:#0000ff;stroke-width:0.264583"
       aria-label="ouve.ai"
       sodipodi:nodetypes="scscscsssssscscscscssccsscsccccccccccccccsccscscsssccccssccccscscsccccccscsscscsccccccccc" />
    <path
       id="rect2"
       style="fill:#ececec;stroke-width:0.264583"
       d="m 77.841555,6.9948219 c -0.18284,0.45664 -0.67253,0.45569 -1.30229,0.41825 -3.34704,-6.57053999 -25.843804,-8.5280701 -17.091954,11.8547961 -0.3557,0.3181 -0.42608,0.59629 -1.39067,0.11882 C 49.352651,-4.0628872 75.150615,0.28017191 77.841555,6.9948219 Z"
       sodipodi:nodetypes="ccccc" />
    <path
       id="rect3"
       style="fill:#ececec;stroke-width:0.239816"
       d="m 59.779031,26.070888 c 0.49965,-0.44064 0.80004,-0.50441 1.48717,0.0298 -4.70834,10.40046 12.139474,15.10789 17.513484,-0.0395 0.66311,-0.40032 1.09031,-0.39635 1.39293,-0.056 -3.73062,14.80974 -24.945594,14.57024 -20.393584,0.0653 z"
       sodipodi:nodetypes="cccccc" />
    <ellipse
       style="fill:#0000ff;stroke-width:0.264583"
       id="path3"
       cx="59.789745"
       cy="23.125137"
       rx="0.86408645"
       ry="0.89911026" />
    <ellipse
       style="fill:#0000ff;stroke-width:0.264583"
       id="path3-0"
       cx="78.016495"
       cy="9.4589653"
       rx="0.86408645"
       ry="0.89911026" />
  </g>
</svg>
